<svg xmlns="http://www.w3.org/2000/svg" xmlns:xlink="http://www.w3.org/1999/xlink" contentStyleType="text/css" data-diagram-type="CLASS" height="933px" preserveAspectRatio="none" style="width:2110px;height:933px;background:#FFFFFF;" version="1.1" viewBox="0 0 2110 933" width="2110px" zoomAndPan="magnify"><?plantuml 1.2026.3beta6?><defs/><g><g class="title" data-source-line="19"><text fill="#000000" font-family="sans-serif" font-size="14" font-weight="700" lengthAdjust="spacing" textLength="363.3916" x="869.8042" y="28.9951">Board Game Caf&#233; &#8212; Arquitectura de alto nivel</text></g><!--cluster P_MODELO--><g class="cluster" data-qualified-name="P_MODELO" data-source-line="30" id="ent0002"><rect fill="#E6F1FB" height="354.4" rx="4" ry="4" style="stroke:#000000;stroke-width:1.5;" width="172" x="7" y="56.2969"/><text fill="#000000" font-family="sans-serif" font-size="14" font-weight="700" lengthAdjust="spacing" textLength="58.1396" x="63.9302" y="77.292">modelo</text></g><!--cluster P_USUARIOS--><g class="cluster" data-qualified-name="P_USUARIOS" data-source-line="36" id="ent0006"><rect fill="#FAEEDA" height="354.4" rx="4" ry="4" style="stroke:#000000;stroke-width:1.5;" width="454" x="853" y="437.6969"/><text fill="#000000" font-family="sans-serif" font-size="14" font-weight="700" lengthAdjust="spacing" textLength="67.3682" x="1046.3159" y="458.692">usuarios</text></g><!--cluster P_JUEGOS--><g class="cluster" data-qualified-name="P_JUEGOS" data-source-line="47" id="ent0015"><rect fill="#EAF3DE" height="227.27" rx="4" ry="4" style="stroke:#000000;stroke-width:1.5;" width="368" x="359" y="691.9569"/><text fill="#000000" font-family="sans-serif" font-size="14" font-weight="700" lengthAdjust="spacing" textLength="52.2334" x="516.8833" y="712.952">juegos</text></g><!--cluster P_MESAS--><g class="cluster" data-qualified-name="P_MESAS" data-source-line="53" id="ent0019"><rect fill="#FBEAF0" height="100.13" rx="4" ry="4" style="stroke:#000000;stroke-width:1.5;" width="84" x="1334" y="437.6969"/><text fill="#000000" font-family="sans-serif" font-size="14" font-weight="700" lengthAdjust="spacing" textLength="50.1963" x="1350.9019" y="458.692">mesas</text></g><!--cluster P_PRODUCTOS--><g class="cluster" data-qualified-name="P_PRODUCTOS" data-source-line="57" id="ent0021"><rect fill="#E1F5EE" height="227.26" rx="4" ry="4" style="stroke:#000000;stroke-width:1.5;" width="237" x="1859" y="437.6969"/><text fill="#000000" font-family="sans-serif" font-size="14" font-weight="700" lengthAdjust="spacing" textLength="79.4746" x="1937.7627" y="458.692">productos</text></g><!--cluster P_PEDIDOS--><g class="cluster" data-qualified-name="P_PEDIDOS" data-source-line="63" id="ent0025"><rect fill="#EEEDFE" height="227.26" rx="4" ry="4" style="stroke:#000000;stroke-width:1.5;" width="140" x="1690" y="310.5669"/><text fill="#000000" font-family="sans-serif" font-size="14" font-weight="700" lengthAdjust="spacing" textLength="62.3096" x="1728.8452" y="331.562">pedidos</text></g><!--cluster P_PRESTAMOS--><g class="cluster" data-qualified-name="P_PRESTAMOS" data-source-line="68" id="ent0028"><rect fill="#FAECE7" height="100.13" rx="4" ry="4" style="stroke:#000000;stroke-width:1.5;" width="112" x="661" y="310.5669"/><text fill="#000000" font-family="sans-serif" font-size="14" font-weight="700" lengthAdjust="spacing" textLength="83.4326" x="675.2837" y="331.562">prestamos</text></g><!--cluster P_VENTAS--><g class="cluster" data-qualified-name="P_VENTAS" data-source-line="72" id="ent0030"><rect fill="#FCEBEB" height="227.26" rx="4" ry="4" style="stroke:#000000;stroke-width:1.5;" width="134" x="371" y="437.6969"/><text fill="#000000" font-family="sans-serif" font-size="14" font-weight="700" lengthAdjust="spacing" textLength="53.0605" x="411.4697" y="458.692">ventas</text></g><!--cluster P_SUGERENCIAS--><g class="cluster" data-qualified-name="P_SUGERENCIAS" data-source-line="77" id="ent0033"><rect fill="#F1EFE8" height="100.13" rx="4" ry="4" style="stroke:#000000;stroke-width:1.5;" width="156" x="1349" y="310.5669"/><text fill="#000000" font-family="sans-serif" font-size="14" font-weight="700" lengthAdjust="spacing" textLength="95.0605" x="1379.4697" y="331.562">sugerencias</text></g><!--class Cafe--><g class="entity" data-qualified-name="P_MODELO.Cafe" data-source-line="31" id="ent0003"><rect fill="#FFFFFF" height="37.1328" rx="4" ry="4" style="stroke:#888888;stroke-width:0.5;" width="47.6182" x="115.19" y="230.4269"/><text fill="#000000" font-family="sans-serif" font-size="13" lengthAdjust="spacing" textLength="29.6182" x="124.19" y="253.4938">Cafe</text></g><!--class GestorPersistencia--><g class="entity" data-qualified-name="P_MODELO.GestorPersistencia" data-source-line="32" id="ent0004"><rect fill="#FFFFFF" height="37.1328" rx="4" ry="4" style="stroke:#888888;stroke-width:0.5;" width="139.6401" x="23.18" y="103.2969"/><text fill="#000000" font-family="sans-serif" font-size="13" lengthAdjust="spacing" textLength="121.6401" x="32.18" y="126.3638">GestorPersistencia</text></g><!--class Informe--><g class="entity" data-qualified-name="P_MODELO.Informe" data-source-line="33" id="ent0005"><rect fill="#FFFFFF" height="37.1328" rx="4" ry="4" style="stroke:#888888;stroke-width:0.5;" width="68.6099" x="22.7" y="357.5669"/><text fill="#000000" font-family="sans-serif" font-size="13" lengthAdjust="spacing" textLength="50.6099" x="31.7" y="380.6338">Informe</text></g><!--class Usuario--><g class="entity" data-qualified-name="P_USUARIOS.Usuario" data-source-line="37" id="ent0007"><rect fill="#FFFFFF" height="37.1328" rx="4" ry="4" style="stroke:#888888;stroke-width:0.5;" width="67.4038" x="1014.3" y="738.9569"/><text fill="#000000" font-family="sans-serif" font-size="13" font-style="italic" lengthAdjust="spacing" textLength="49.4038" x="1023.3" y="762.0238">Usuario</text></g><!--class Cliente--><g class="entity" data-qualified-name="P_USUARIOS.Cliente" data-source-line="38" id="ent0008"><rect fill="#FFFFFF" height="37.1328" rx="4" ry="4" style="stroke:#888888;stroke-width:0.5;" width="63.6333" x="1057.18" y="611.8269"/><text fill="#000000" font-family="sans-serif" font-size="13" lengthAdjust="spacing" textLength="45.6333" x="1066.18" y="634.8938">Cliente</text></g><!--class Empleado--><g class="entity" data-qualified-name="P_USUARIOS.Empleado" data-source-line="39" id="ent0009"><rect fill="#FFFFFF" height="37.1328" rx="4" ry="4" style="stroke:#888888;stroke-width:0.5;" width="82.9111" x="914.54" y="611.8269"/><text fill="#000000" font-family="sans-serif" font-size="13" font-style="italic" lengthAdjust="spacing" textLength="64.9111" x="923.54" y="634.8938">Empleado</text></g><!--class Mesero--><g class="entity" data-qualified-name="P_USUARIOS.Mesero" data-source-line="40" id="ent0010"><rect fill="#FFFFFF" height="37.1328" rx="4" ry="4" style="stroke:#888888;stroke-width:0.5;" width="65.2837" x="869.36" y="484.6969"/><text fill="#000000" font-family="sans-serif" font-size="13" lengthAdjust="spacing" textLength="47.2837" x="878.36" y="507.7638">Mesero</text></g><!--class Cocinero--><g class="entity" data-qualified-name="P_USUARIOS.Cocinero" data-source-line="41" id="ent0011"><rect fill="#FFFFFF" height="37.1328" rx="4" ry="4" style="stroke:#888888;stroke-width:0.5;" width="75.3257" x="994.34" y="484.6969"/><text fill="#000000" font-family="sans-serif" font-size="13" lengthAdjust="spacing" textLength="57.3257" x="1003.34" y="507.7638">Cocinero</text></g><!--class Administrador--><g class="entity" data-qualified-name="P_USUARIOS.Administrador" data-source-line="42" id="ent0012"><rect fill="#FFFFFF" height="37.1328" rx="4" ry="4" style="stroke:#888888;stroke-width:0.5;" width="110.0029" x="1181" y="611.8269"/><text fill="#000000" font-family="sans-serif" font-size="13" lengthAdjust="spacing" textLength="92.0029" x="1190" y="634.8938">Administrador</text></g><!--class Turno--><g class="entity" data-qualified-name="P_USUARIOS.Turno" data-source-line="43" id="ent0013"><rect fill="#FFFFFF" height="37.1328" rx="4" ry="4" style="stroke:#888888;stroke-width:0.5;" width="55.7178" x="898.14" y="738.9569"/><text fill="#000000" font-family="sans-serif" font-size="13" lengthAdjust="spacing" textLength="37.7178" x="907.14" y="762.0238">Turno</text></g><!--class SolicitudCambioTurno--><g class="entity" data-qualified-name="P_USUARIOS.SolicitudCambioTurno" data-source-line="44" id="ent0014"><rect fill="#FFFFFF" height="37.1328" rx="4" ry="4" style="stroke:#888888;stroke-width:0.5;" width="161.019" x="1129.49" y="484.6969"/><text fill="#000000" font-family="sans-serif" font-size="13" lengthAdjust="spacing" textLength="143.019" x="1138.49" y="507.7638">SolicitudCambioTurno</text></g><!--class JuegoMesa--><g class="entity" data-qualified-name="P_JUEGOS.JuegoMesa" data-source-line="48" id="ent0016"><rect fill="#FFFFFF" height="37.1328" rx="4" ry="4" style="stroke:#888888;stroke-width:0.5;" width="88.2305" x="591.88" y="866.0969"/><text fill="#000000" font-family="sans-serif" font-size="13" font-style="italic" lengthAdjust="spacing" textLength="70.2305" x="600.88" y="889.1638">JuegoMesa</text></g><!--class JuegoMesaPrestamo--><g class="entity" data-qualified-name="P_JUEGOS.JuegoMesaPrestamo" data-source-line="49" id="ent0017"><rect fill="#FFFFFF" height="37.1328" rx="4" ry="4" style="stroke:#888888;stroke-width:0.5;" width="149.8662" x="561.07" y="738.9569"/><text fill="#000000" font-family="sans-serif" font-size="13" lengthAdjust="spacing" textLength="131.8662" x="570.07" y="762.0238">JuegoMesaPrestamo</text></g><!--class JuegoMesaVenta--><g class="entity" data-qualified-name="P_JUEGOS.JuegoMesaVenta" data-source-line="50" id="ent0018"><rect fill="#FFFFFF" height="37.1328" rx="4" ry="4" style="stroke:#888888;stroke-width:0.5;" width="126.4243" x="374.79" y="738.9569"/><text fill="#000000" font-family="sans-serif" font-size="13" lengthAdjust="spacing" textLength="108.4243" x="383.79" y="762.0238">JuegoMesaVenta</text></g><!--class Mesa--><g class="entity" data-qualified-name="P_MESAS.Mesa" data-source-line="54" id="ent0020"><rect fill="#FFFFFF" height="37.1328" rx="4" ry="4" style="stroke:#888888;stroke-width:0.5;" width="51.9536" x="1350.02" y="484.6969"/><text fill="#000000" font-family="sans-serif" font-size="13" lengthAdjust="spacing" textLength="33.9536" x="1359.02" y="507.7638">Mesa</text></g><!--class ProductoMenu--><g class="entity" data-qualified-name="P_PRODUCTOS.ProductoMenu" data-source-line="58" id="ent0022"><rect fill="#FFFFFF" height="37.1328" rx="4" ry="4" style="stroke:#888888;stroke-width:0.5;" width="111.52" x="1921.24" y="611.8269"/><text fill="#000000" font-family="sans-serif" font-size="13" font-style="italic" lengthAdjust="spacing" textLength="93.52" x="1930.24" y="634.8938">ProductoMenu</text></g><!--class Bebida--><g class="entity" data-qualified-name="P_PRODUCTOS.Bebida" data-source-line="59" id="ent0023"><rect fill="#FFFFFF" height="37.1328" rx="4" ry="4" style="stroke:#888888;stroke-width:0.5;" width="62.9985" x="1874.5" y="484.6969"/><text fill="#000000" font-family="sans-serif" font-size="13" lengthAdjust="spacing" textLength="44.9985" x="1883.5" y="507.7638">Bebida</text></g><!--class Pasteleria--><g class="entity" data-qualified-name="P_PRODUCTOS.Pasteleria" data-source-line="60" id="ent0024"><rect fill="#FFFFFF" height="37.1328" rx="4" ry="4" style="stroke:#888888;stroke-width:0.5;" width="82.2065" x="1997.9" y="484.6969"/><text fill="#000000" font-family="sans-serif" font-size="13" lengthAdjust="spacing" textLength="64.2065" x="2006.9" y="507.7638">Pasteleria</text></g><!--class Pedido--><g class="entity" data-qualified-name="P_PEDIDOS.Pedido" data-source-line="64" id="ent0026"><rect fill="#FFFFFF" height="37.1328" rx="4" ry="4" style="stroke:#888888;stroke-width:0.5;" width="61.9067" x="1706.05" y="357.5669"/><text fill="#000000" font-family="sans-serif" font-size="13" lengthAdjust="spacing" textLength="43.9067" x="1715.05" y="380.6338">Pedido</text></g><!--class DetallePedido--><g class="entity" data-qualified-name="P_PEDIDOS.DetallePedido" data-source-line="65" id="ent0027"><rect fill="#FFFFFF" height="37.1328" rx="4" ry="4" style="stroke:#888888;stroke-width:0.5;" width="108.2002" x="1705.9" y="484.6969"/><text fill="#000000" font-family="sans-serif" font-size="13" lengthAdjust="spacing" textLength="90.2002" x="1714.9" y="507.7638">DetallePedido</text></g><!--class Prestamo--><g class="entity" data-qualified-name="P_PRESTAMOS.Prestamo" data-source-line="69" id="ent0029"><rect fill="#FFFFFF" height="37.1328" rx="4" ry="4" style="stroke:#888888;stroke-width:0.5;" width="79.6357" x="677.18" y="357.5669"/><text fill="#000000" font-family="sans-serif" font-size="13" lengthAdjust="spacing" textLength="61.6357" x="686.18" y="380.6338">Prestamo</text></g><!--class VentaJuego--><g class="entity" data-qualified-name="P_VENTAS.VentaJuego" data-source-line="73" id="ent0031"><rect fill="#FFFFFF" height="37.1328" rx="4" ry="4" style="stroke:#888888;stroke-width:0.5;" width="92.4707" x="391.76" y="484.6969"/><text fill="#000000" font-family="sans-serif" font-size="13" lengthAdjust="spacing" textLength="74.4707" x="400.76" y="507.7638">VentaJuego</text></g><!--class DetalleVenta--><g class="entity" data-qualified-name="P_VENTAS.DetalleVenta" data-source-line="74" id="ent0032"><rect fill="#FFFFFF" height="37.1328" rx="4" ry="4" style="stroke:#888888;stroke-width:0.5;" width="102.4873" x="386.76" y="611.8269"/><text fill="#000000" font-family="sans-serif" font-size="13" lengthAdjust="spacing" textLength="84.4873" x="395.76" y="634.8938">DetalleVenta</text></g><!--class SugerenciaPlato--><g class="entity" data-qualified-name="P_SUGERENCIAS.SugerenciaPlato" data-source-line="78" id="ent0034"><rect fill="#FFFFFF" height="37.1328" rx="4" ry="4" style="stroke:#888888;stroke-width:0.5;" width="123.5171" x="1365.24" y="357.5669"/><text fill="#000000" font-family="sans-serif" font-size="13" lengthAdjust="spacing" textLength="105.5171" x="1374.24" y="380.6338">SugerenciaPlato</text></g><!--link Cliente to Usuario--><g class="link" data-entity-1="ent0008" data-entity-2="ent0007" data-link-type="extension" data-source-line="85" id="lnk35"><path codeLine="85" d="M1069.44,649.4269 C1069.44,673.5369 1069.44,696.8069 1069.44,720.7769" fill="none" id="Cliente-to-Usuario" style="stroke:#181818;stroke-width:1;"/><polygon fill="none" points="1069.44,738.7769,1075.44,720.7769,1063.44,720.7769,1069.44,738.7769" style="stroke:#181818;stroke-width:1;"/></g><!--link Empleado to Usuario--><g class="link" data-entity-1="ent0009" data-entity-2="ent0007" data-link-type="extension" data-source-line="86" id="lnk36"><path codeLine="86" d="M975.66,649.2569 C975.66,684.8169 975.66,758.2269 975.66,758.2269 C975.66,758.2269 977.18,758.2269 995.95,758.2269" fill="none" id="Empleado-to-Usuario" style="stroke:#181818;stroke-width:1;"/><polygon fill="none" points="1013.95,758.2269,995.95,752.2269,995.95,764.2269,1013.95,758.2269" style="stroke:#181818;stroke-width:1;"/></g><!--link Administrador to Usuario--><g class="link" data-entity-1="ent0012" data-entity-2="ent0007" data-link-type="extension" data-source-line="87" id="lnk37"><path codeLine="87" d="M1236,649.2569 C1236,684.8169 1236,758.2269 1236,758.2269 C1236,758.2269 1154.22,758.2269 1100.05,758.2269" fill="none" id="Administrador-to-Usuario" style="stroke:#181818;stroke-width:1;"/><polygon fill="none" points="1082.05,758.2269,1100.05,764.2269,1100.05,752.2269,1082.05,758.2269" style="stroke:#181818;stroke-width:1;"/></g><!--link Mesero to Empleado--><g class="link" data-entity-1="ent0010" data-entity-2="ent0009" data-link-type="extension" data-source-line="88" id="lnk38"><path codeLine="88" d="M924.59,522.2969 C924.59,546.3969 924.59,569.6769 924.59,593.6469" fill="none" id="Mesero-to-Empleado" style="stroke:#181818;stroke-width:1;"/><polygon fill="none" points="924.59,611.6469,930.59,593.6469,918.59,593.6469,924.59,611.6469" style="stroke:#181818;stroke-width:1;"/></g><!--link Cocinero to Empleado--><g class="link" data-entity-1="ent0011" data-entity-2="ent0009" data-link-type="extension" data-source-line="89" id="lnk39"><path codeLine="89" d="M1005.88,522.1469 C1005.88,557.7369 1005.88,631.2269 1005.88,631.2269 C1005.88,631.2269 1020.56,631.2269 1015.64,631.2269" fill="none" id="Cocinero-to-Empleado" style="stroke:#181818;stroke-width:1;"/><polygon fill="none" points="997.64,631.2269,1015.64,637.2269,1015.64,625.2269,997.64,631.2269" style="stroke:#181818;stroke-width:1;"/></g><!--link JuegoMesaPrestamo to JuegoMesa--><g class="link" data-entity-1="ent0017" data-entity-2="ent0016" data-link-type="extension" data-source-line="91" id="lnk40"><path codeLine="91" d="M636,776.5569 C636,800.6669 636,823.9469 636,847.9169" fill="none" id="JuegoMesaPrestamo-to-JuegoMesa" style="stroke:#181818;stroke-width:1;"/><polygon fill="none" points="636,865.9169,642,847.9169,630,847.9169,636,865.9169" style="stroke:#181818;stroke-width:1;"/></g><!--link JuegoMesaVenta to JuegoMesa--><g class="link" data-entity-1="ent0018" data-entity-2="ent0016" data-link-type="extension" data-source-line="92" id="lnk41"><path codeLine="92" d="M438,776.3669 C438,811.8869 438,885.2269 438,885.2269 C438,885.2269 515.19,885.2269 573.56,885.2269" fill="none" id="JuegoMesaVenta-to-JuegoMesa" style="stroke:#181818;stroke-width:1;"/><polygon fill="none" points="591.56,885.2269,573.56,879.2269,573.56,891.2269,591.56,885.2269" style="stroke:#181818;stroke-width:1;"/></g><!--link Bebida to ProductoMenu--><g class="link" data-entity-1="ent0023" data-entity-2="ent0022" data-link-type="extension" data-source-line="94" id="lnk42"><path codeLine="94" d="M1929.37,522.2969 C1929.37,546.3969 1929.37,569.6769 1929.37,593.6469" fill="none" id="Bebida-to-ProductoMenu" style="stroke:#181818;stroke-width:1;"/><polygon fill="none" points="1929.37,611.6469,1935.37,593.6469,1923.37,593.6469,1929.37,611.6469" style="stroke:#181818;stroke-width:1;"/></g><!--link Pasteleria to ProductoMenu--><g class="link" data-entity-1="ent0024" data-entity-2="ent0022" data-link-type="extension" data-source-line="95" id="lnk43"><path codeLine="95" d="M2015.33,522.2969 C2015.33,546.3969 2015.33,569.6769 2015.33,593.6469" fill="none" id="Pasteleria-to-ProductoMenu" style="stroke:#181818;stroke-width:1;"/><polygon fill="none" points="2015.33,611.6469,2021.33,593.6469,2009.33,593.6469,2015.33,611.6469" style="stroke:#181818;stroke-width:1;"/></g><!--reverse link Cafe to Usuario--><g class="link" data-entity-1="ent0003" data-entity-2="ent0007" data-link-type="composition" data-source-line="102" id="lnk44"><path codeLine="102" d="M134.24,279.9469 C134.24,348.4569 134.24,567.2269 134.24,567.2269 C134.24,567.2269 1025.02,567.2269 1025.02,567.2269 C1025.02,567.2269 1025.02,690.4469 1025.02,738.5869" fill="none" id="Cafe-backto-Usuario" style="stroke:#181818;stroke-width:1;"/><polygon fill="#181818" points="134.24,267.9469,130.24,273.9469,134.24,279.9469,138.24,273.9469,134.24,267.9469" style="stroke:#181818;stroke-width:1;"/><text fill="#000000" font-family="sans-serif" font-size="13" lengthAdjust="spacing" textLength="54.9009" x="454.67" y="557.2938">usuarios</text><text fill="#000000" font-family="sans-serif" font-size="13" lengthAdjust="spacing" textLength="8.271" x="116.8583" y="293.534">1</text><text fill="#000000" font-family="sans-serif" font-size="13" lengthAdjust="spacing" textLength="23.0356" x="986.1569" y="721.7636">0..*</text></g><!--reverse link Cafe to Mesa--><g class="link" data-entity-1="ent0003" data-entity-2="ent0020" data-link-type="composition" data-source-line="103" id="lnk45"><path codeLine="103" d="M175.12,249.2269 C346.41,249.2269 1360.17,249.2269 1360.17,249.2269 C1360.17,249.2269 1360.17,425.9169 1360.17,484.5869" fill="none" id="Cafe-backto-Mesa" style="stroke:#181818;stroke-width:1;"/><polygon fill="#181818" points="163.12,249.2269,169.12,253.2269,175.12,249.2269,169.12,245.2269,163.12,249.2269" style="stroke:#181818;stroke-width:1;"/><text fill="#000000" font-family="sans-serif" font-size="13" lengthAdjust="spacing" textLength="42.1738" x="830.32" y="268.2938">mesas</text><text fill="#000000" font-family="sans-serif" font-size="13" lengthAdjust="spacing" textLength="8.271" x="176.92" y="214.5538">1</text><text fill="#000000" font-family="sans-serif" font-size="13" lengthAdjust="spacing" textLength="23.0356" x="1323.0509" y="467.827">0..*</text></g><!--reverse link Cafe to JuegoMesaPrestamo--><g class="link" data-entity-1="ent0003" data-entity-2="ent0017" data-link-type="composition" data-source-line="104" id="lnk46"><path codeLine="104" d="M175.14,259.2269 C272.5,259.2269 619.12,259.2269 619.12,259.2269 C619.12,259.2269 619.12,647.5769 619.12,738.6069" fill="none" id="Cafe-backto-JuegoMesaPrestamo" style="stroke:#181818;stroke-width:1;"/><polygon fill="#181818" points="163.14,259.2269,169.14,263.2269,175.14,259.2269,169.14,255.2269,163.14,259.2269" style="stroke:#181818;stroke-width:1;"/><text fill="#000000" font-family="sans-serif" font-size="13" lengthAdjust="spacing" textLength="131.936" x="481.12" y="260.9838">inventario pr&#233;stamo</text><text fill="#000000" font-family="sans-serif" font-size="13" lengthAdjust="spacing" textLength="8.271" x="176.638" y="282.5">1</text><text fill="#000000" font-family="sans-serif" font-size="13" lengthAdjust="spacing" textLength="23.0356" x="581.7435" y="721.7885">0..*</text></g><!--reverse link Cafe to JuegoMesaVenta--><g class="link" data-entity-1="ent0003" data-entity-2="ent0018" data-link-type="composition" data-source-line="105" id="lnk47"><path codeLine="105" d="M175.07,263.2269 C236.22,263.2269 380.77,263.2269 380.77,263.2269 C380.77,263.2269 380.77,648.4669 380.77,738.7569" fill="none" id="Cafe-backto-JuegoMesaVenta" style="stroke:#181818;stroke-width:1;"/><polygon fill="#181818" points="163.07,263.2269,169.07,267.2269,175.07,263.2269,169.07,259.2269,163.07,263.2269" style="stroke:#181818;stroke-width:1;"/><text fill="#000000" font-family="sans-serif" font-size="13" lengthAdjust="spacing" textLength="106.8818" x="267.77" y="411.2038">inventario venta</text><text fill="#000000" font-family="sans-serif" font-size="13" lengthAdjust="spacing" textLength="8.271" x="155.2853" y="293.4563">1</text><text fill="#000000" font-family="sans-serif" font-size="13" lengthAdjust="spacing" textLength="23.0356" x="337.5276" y="723.6856">0..*</text></g><!--reverse link Cafe to ProductoMenu--><g class="link" data-entity-1="ent0003" data-entity-2="ent0022" data-link-type="composition" data-source-line="106" id="lnk48"><path codeLine="106" d="M175.13,235.2269 C390.81,235.2269 1967.7,235.2269 1967.7,235.2269 C1967.7,235.2269 1967.7,532.3969 1967.7,611.3369" fill="none" id="Cafe-backto-ProductoMenu" style="stroke:#181818;stroke-width:1;"/><polygon fill="#181818" points="163.13,235.2269,169.13,239.2269,175.13,235.2269,169.13,231.2269,163.13,235.2269" style="stroke:#181818;stroke-width:1;"/><text fill="#000000" font-family="sans-serif" font-size="13" lengthAdjust="spacing" textLength="37.1401" x="1209.47" y="225.2938">men&#250;</text><text fill="#000000" font-family="sans-serif" font-size="13" lengthAdjust="spacing" textLength="8.271" x="176.6258" y="220.3438">1</text><text fill="#000000" font-family="sans-serif" font-size="13" lengthAdjust="spacing" textLength="23.0356" x="1932.5066" y="594.8905">0..*</text></g><!--reverse link Cafe to Pedido--><g class="link" data-entity-1="ent0003" data-entity-2="ent0026" data-link-type="composition" data-source-line="107" id="lnk49"><path codeLine="107" d="M175.14,240.2269 C375.06,240.2269 1737,240.2269 1737,240.2269 C1737,240.2269 1737,319.8869 1737,357.2369" fill="none" id="Cafe-backto-Pedido" style="stroke:#181818;stroke-width:1;"/><polygon fill="#181818" points="163.14,240.2269,169.14,244.2269,175.14,240.2269,169.14,236.2269,163.14,240.2269" style="stroke:#181818;stroke-width:1;"/><text fill="#000000" font-family="sans-serif" font-size="13" lengthAdjust="spacing" textLength="51.0923" x="950.58" y="230.2938">pedidos</text><text fill="#000000" font-family="sans-serif" font-size="13" lengthAdjust="spacing" textLength="8.271" x="176.638" y="259.3438">1</text><text fill="#000000" font-family="sans-serif" font-size="13" lengthAdjust="spacing" textLength="23.0356" x="1703.7379" y="340.4233">0..*</text></g><!--reverse link Cafe to Prestamo--><g class="link" data-entity-1="ent0003" data-entity-2="ent0029" data-link-type="composition" data-source-line="108" id="lnk50"><path codeLine="108" d="M153.29,279.9369 C153.29,314.0369 153.29,370.2269 153.29,370.2269 C153.29,370.2269 548.13,370.2269 676.91,370.2269" fill="none" id="Cafe-backto-Prestamo" style="stroke:#181818;stroke-width:1;"/><polygon fill="#181818" points="153.29,267.9369,149.29,273.9369,153.29,279.9369,157.29,273.9369,153.29,267.9369" style="stroke:#181818;stroke-width:1;"/><text fill="#000000" font-family="sans-serif" font-size="13" lengthAdjust="spacing" textLength="68.8213" x="288.95" y="360.2938">pr&#233;stamos</text><text fill="#000000" font-family="sans-serif" font-size="13" lengthAdjust="spacing" textLength="8.271" x="140.3136" y="293.5217">1</text><text fill="#000000" font-family="sans-serif" font-size="13" lengthAdjust="spacing" textLength="23.0356" x="640.174" y="358.695">0..*</text></g><!--reverse link Cafe to VentaJuego--><g class="link" data-entity-1="ent0003" data-entity-2="ent0031" data-link-type="composition" data-source-line="109" id="lnk51"><path codeLine="109" d="M143.76,279.7669 C143.76,338.7069 143.76,504.2269 143.76,504.2269 C143.76,504.2269 308.41,504.2269 391.38,504.2269" fill="none" id="Cafe-backto-VentaJuego" style="stroke:#181818;stroke-width:1;"/><polygon fill="#181818" points="143.76,267.7669,139.76,273.7669,143.76,279.7669,147.76,273.7669,143.76,267.7669" style="stroke:#181818;stroke-width:1;"/><text fill="#000000" font-family="sans-serif" font-size="13" lengthAdjust="spacing" textLength="43.7671" x="99.34" y="494.2938">ventas</text><text fill="#000000" font-family="sans-serif" font-size="13" lengthAdjust="spacing" textLength="8.271" x="96.0763" y="294.0778">1</text><text fill="#000000" font-family="sans-serif" font-size="13" lengthAdjust="spacing" textLength="23.0356" x="354.5681" y="493.774">0..*</text></g><!--reverse link Cafe to SugerenciaPlato--><g class="link" data-entity-1="ent0003" data-entity-2="ent0034" data-link-type="composition" data-source-line="110" id="lnk52"><path codeLine="110" d="M175.3,245.2269 C352.49,245.2269 1427,245.2269 1427,245.2269 C1427,245.2269 1427,320.7869 1427,357.0969" fill="none" id="Cafe-backto-SugerenciaPlato" style="stroke:#181818;stroke-width:1;"/><polygon fill="#181818" points="163.3,245.2269,169.3,249.2269,175.3,245.2269,169.3,241.2269,163.3,245.2269" style="stroke:#181818;stroke-width:1;"/><text fill="#000000" font-family="sans-serif" font-size="13" lengthAdjust="spacing" textLength="78.3428" x="858.08" y="235.2938">sugerencias</text><text fill="#000000" font-family="sans-serif" font-size="13" lengthAdjust="spacing" textLength="8.271" x="177.451" y="282.4038">1</text><text fill="#000000" font-family="sans-serif" font-size="13" lengthAdjust="spacing" textLength="23.0356" x="1393.9576" y="340.6551">0..*</text></g><!--reverse link Cafe to SolicitudCambioTurno--><g class="link" data-entity-1="ent0003" data-entity-2="ent0014" data-link-type="composition" data-source-line="111" id="lnk53"><path codeLine="111" d="M175.13,254.2269 C333.85,254.2269 1210,254.2269 1210,254.2269 C1210,254.2269 1210,426.6269 1210,484.5469" fill="none" id="Cafe-backto-SolicitudCambioTurno" style="stroke:#181818;stroke-width:1;"/><polygon fill="#181818" points="163.13,254.2269,169.13,258.2269,175.13,254.2269,169.13,250.2269,163.13,254.2269" style="stroke:#181818;stroke-width:1;"/><text fill="#000000" font-family="sans-serif" font-size="13" lengthAdjust="spacing" textLength="69.0688" x="725.72" y="244.2938">solicitudes</text><text fill="#000000" font-family="sans-serif" font-size="13" lengthAdjust="spacing" textLength="8.271" x="176.6258" y="243.5">1</text><text fill="#000000" font-family="sans-serif" font-size="13" lengthAdjust="spacing" textLength="23.0356" x="1176.7388" y="467.7772">0..*</text></g><!--reverse link Pedido to DetallePedido--><g class="link" data-entity-1="ent0026" data-entity-2="ent0027" data-link-type="composition" data-source-line="114" id="lnk54"><path codeLine="114" d="M1737,407.1669 C1737,431.2669 1737,460.5469 1737,484.5169" fill="none" id="Pedido-backto-DetallePedido" style="stroke:#181818;stroke-width:1;"/><polygon fill="#181818" points="1737,395.1669,1733,401.1669,1737,407.1669,1741,401.1669,1737,395.1669" style="stroke:#181818;stroke-width:1;"/><text fill="#000000" font-family="sans-serif" font-size="13" lengthAdjust="spacing" textLength="8.271" x="1720.7181" y="420.7725">1</text><text fill="#000000" font-family="sans-serif" font-size="13" lengthAdjust="spacing" textLength="23.0356" x="1698.1324" y="467.7399">1..*</text></g><!--reverse link VentaJuego to DetalleVenta--><g class="link" data-entity-1="ent0031" data-entity-2="ent0032" data-link-type="composition" data-source-line="115" id="lnk55"><path codeLine="115" d="M422.59,534.2969 C422.59,558.3969 422.59,587.6769 422.59,611.6469" fill="none" id="VentaJuego-backto-DetalleVenta" style="stroke:#181818;stroke-width:1;"/><polygon fill="#181818" points="422.59,522.2969,418.59,528.2969,422.59,534.2969,426.59,528.2969,422.59,522.2969" style="stroke:#181818;stroke-width:1;"/><text fill="#000000" font-family="sans-serif" font-size="13" lengthAdjust="spacing" textLength="8.271" x="402.7463" y="547.9025">1</text><text fill="#000000" font-family="sans-serif" font-size="13" lengthAdjust="spacing" textLength="23.0356" x="385.5716" y="594.8699">1..*</text></g><!--reverse link Empleado to Turno--><g class="link" data-entity-1="ent0009" data-entity-2="ent0013" data-link-type="aggregation" data-source-line="116" id="lnk56"><path codeLine="116" d="M934.2,661.4269 C934.2,685.5369 934.2,714.8069 934.2,738.7769" fill="none" id="Empleado-backto-Turno" style="stroke:#181818;stroke-width:1;"/><polygon fill="none" points="934.2,649.4269,930.2,655.4269,934.2,661.4269,938.2,655.4269,934.2,649.4269" style="stroke:#181818;stroke-width:1;"/><text fill="#000000" font-family="sans-serif" font-size="13" lengthAdjust="spacing" textLength="8.271" x="912.8786" y="675.0325">1</text><text fill="#000000" font-family="sans-serif" font-size="13" lengthAdjust="spacing" textLength="23.0356" x="902.9377" y="721.9999">0..*</text></g><!--link Mesa to Cliente--><g class="link" data-entity-1="ent0020" data-entity-2="ent0008" data-link-type="dependency" data-source-line="119" id="lnk57"><path codeLine="119" d="M1376,522.2769 C1376,549.7369 1376,597.2269 1376,597.2269 C1376,597.2269 1095.24,597.2269 1095.24,597.2269 C1095.24,597.2269 1095.24,598.0369 1095.24,605.4869" fill="none" id="Mesa-to-Cliente" style="stroke:#181818;stroke-width:1;"/><polygon fill="#181818" points="1095.24,611.4869,1099.24,602.4869,1095.24,606.4869,1091.24,602.4869,1095.24,611.4869" style="stroke:#181818;stroke-width:1;"/><text fill="#000000" font-family="sans-serif" font-size="13" lengthAdjust="spacing" textLength="60.8931" x="1198.97" y="587.2938">ocupante</text><text fill="#000000" font-family="sans-serif" font-size="13" lengthAdjust="spacing" textLength="24.8066" x="1341.9315" y="547.8779">0..1</text><text fill="#000000" font-family="sans-serif" font-size="13" lengthAdjust="spacing" textLength="24.8066" x="1062.4726" y="594.6709">0..1</text></g><!--link Prestamo to JuegoMesaPrestamo--><g class="link" data-entity-1="ent0029" data-entity-2="ent0017" data-link-type="dependency" data-source-line="120" id="lnk58"><path codeLine="120" d="M694.06,395.0469 C694.06,459.9769 694.06,667.3969 694.06,732.4969" fill="none" id="Prestamo-to-JuegoMesaPrestamo" style="stroke:#181818;stroke-width:1;"/><polygon fill="#181818" points="694.06,738.4969,698.06,729.4969,694.06,733.4969,690.06,729.4969,694.06,738.4969" style="stroke:#181818;stroke-width:1;"/><text fill="#000000" font-family="sans-serif" font-size="13" lengthAdjust="spacing" textLength="36.0547" x="651.06" y="556.8338">juego</text><text fill="#000000" font-family="sans-serif" font-size="13" lengthAdjust="spacing" textLength="23.0356" x="655.7129" y="420.6248">0..*</text><text fill="#000000" font-family="sans-serif" font-size="13" lengthAdjust="spacing" textLength="8.271" x="691.2045" y="722.0574">1</text></g><!--link Prestamo to Usuario--><g class="link" data-entity-1="ent0029" data-entity-2="ent0007" data-link-type="dependency" data-source-line="121" id="lnk59"><path codeLine="121" d="M733.88,394.9269 C733.88,437.4169 733.88,537.2269 733.88,537.2269 C733.88,537.2269 1046.46,537.2269 1046.46,537.2269 C1046.46,537.2269 1046.46,679.4669 1046.46,732.7469" fill="none" id="Prestamo-to-Usuario" style="stroke:#181818;stroke-width:1;"/><polygon fill="#181818" points="1046.46,738.7469,1050.46,729.7469,1046.46,733.7469,1042.46,729.7469,1046.46,738.7469" style="stroke:#181818;stroke-width:1;"/><text fill="#000000" font-family="sans-serif" font-size="13" lengthAdjust="spacing" textLength="48.1279" x="864.78" y="556.2938">usuario</text><text fill="#000000" font-family="sans-serif" font-size="13" lengthAdjust="spacing" textLength="23.0356" x="704.7337" y="420.8815">0..*</text><text fill="#000000" font-family="sans-serif" font-size="13" lengthAdjust="spacing" textLength="8.271" x="1054.5547" y="721.9626">1</text></g><!--link Prestamo to Mesa--><g class="link" data-entity-1="ent0029" data-entity-2="ent0020" data-link-type="dependency" data-source-line="122" id="lnk60"><path codeLine="122" d="M756.92,370.2269 C896.61,370.2269 1355.1,370.2269 1355.1,370.2269 C1355.1,370.2269 1355.1,441.4169 1355.1,478.1969" fill="none" id="Prestamo-to-Mesa" style="stroke:#181818;stroke-width:1;"/><polygon fill="#181818" points="1355.1,484.1969,1359.1,475.1969,1355.1,479.1969,1351.1,475.1969,1355.1,484.1969" style="stroke:#181818;stroke-width:1;"/><text fill="#000000" font-family="sans-serif" font-size="13" lengthAdjust="spacing" textLength="35.4009" x="1070.99" y="360.2938">mesa</text><text fill="#000000" font-family="sans-serif" font-size="13" lengthAdjust="spacing" textLength="23.0356" x="770.6385" y="358.695">0..*</text><text fill="#000000" font-family="sans-serif" font-size="13" lengthAdjust="spacing" textLength="24.8066" x="1311.3867" y="500.3044">0..1</text></g><!--link Pedido to Mesa--><g class="link" data-entity-1="ent0026" data-entity-2="ent0020" data-link-type="dependency" data-source-line="123" id="lnk61"><path codeLine="123" d="M1705.66,376.2269 C1664.48,376.2269 1597.33,376.2269 1597.33,376.2269 C1597.33,376.2269 1597.33,504.2269 1597.33,504.2269 C1597.33,504.2269 1466.89,504.2269 1408.26,504.2269" fill="none" id="Pedido-to-Mesa" style="stroke:#181818;stroke-width:1;"/><polygon fill="#181818" points="1402.26,504.2269,1411.26,508.2269,1407.26,504.2269,1411.26,500.2269,1402.26,504.2269" style="stroke:#181818;stroke-width:1;"/><text fill="#000000" font-family="sans-serif" font-size="13" lengthAdjust="spacing" textLength="35.4009" x="1555.33" y="473.6638">mesa</text><text fill="#000000" font-family="sans-serif" font-size="13" lengthAdjust="spacing" textLength="23.0356" x="1668.8784" y="396.4708">0..*</text><text fill="#000000" font-family="sans-serif" font-size="13" lengthAdjust="spacing" textLength="8.271" x="1415.7672" y="492.7218">1</text></g><!--link DetallePedido to ProductoMenu--><g class="link" data-entity-1="ent0027" data-entity-2="ent0022" data-link-type="dependency" data-source-line="124" id="lnk62"><path codeLine="124" d="M1760,522.1469 C1760,557.7369 1760,631.2269 1760,631.2269 C1760,631.2269 1850.54,631.2269 1914.83,631.2269" fill="none" id="DetallePedido-to-ProductoMenu" style="stroke:#181818;stroke-width:1;"/><polygon fill="#181818" points="1920.83,631.2269,1911.83,627.2269,1915.83,631.2269,1911.83,635.2269,1920.83,631.2269" style="stroke:#181818;stroke-width:1;"/><text fill="#000000" font-family="sans-serif" font-size="13" lengthAdjust="spacing" textLength="58.2397" x="1720.88" y="621.2938">producto</text><text fill="#000000" font-family="sans-serif" font-size="13" lengthAdjust="spacing" textLength="23.0356" x="1726.9572" y="547.7178">0..*</text><text fill="#000000" font-family="sans-serif" font-size="13" lengthAdjust="spacing" textLength="8.271" x="1898.782" y="620.7581">1</text></g><!--link DetalleVenta to JuegoMesaVenta--><g class="link" data-entity-1="ent0032" data-entity-2="ent0018" data-link-type="dependency" data-source-line="125" id="lnk63"><path codeLine="125" d="M438,649.4269 C438,673.5369 438,708.8069 438,732.7769" fill="none" id="DetalleVenta-to-JuegoMesaVenta" style="stroke:#181818;stroke-width:1;"/><polygon fill="#181818" points="438,738.7769,442,729.7769,438,733.7769,434,729.7769,438,738.7769" style="stroke:#181818;stroke-width:1;"/><text fill="#000000" font-family="sans-serif" font-size="13" lengthAdjust="spacing" textLength="36.0547" x="445" y="684.1738">juego</text><text fill="#000000" font-family="sans-serif" font-size="13" lengthAdjust="spacing" textLength="23.0356" x="404.9564" y="675.0325">0..*</text><text fill="#000000" font-family="sans-serif" font-size="13" lengthAdjust="spacing" textLength="8.271" x="421.595" y="721.9999">1</text></g><!--link VentaJuego to Usuario--><g class="link" data-entity-1="ent0031" data-entity-2="ent0007" data-link-type="dependency" data-source-line="126" id="lnk64"><path codeLine="126" d="M453.41,522.0569 C453.41,535.8569 453.41,552.2269 453.41,552.2269 C453.41,552.2269 1035.74,552.2269 1035.74,552.2269 C1035.74,552.2269 1035.74,681.7569 1035.74,732.5769" fill="none" id="VentaJuego-to-Usuario" style="stroke:#181818;stroke-width:1;"/><polygon fill="#181818" points="1035.74,738.5769,1039.74,729.5769,1035.74,733.5769,1031.74,729.5769,1035.74,738.5769" style="stroke:#181818;stroke-width:1;"/><text fill="#000000" font-family="sans-serif" font-size="13" lengthAdjust="spacing" textLength="70.8779" x="745.67" y="542.2938">comprador</text><text fill="#000000" font-family="sans-serif" font-size="13" lengthAdjust="spacing" textLength="23.0356" x="423.906" y="548.0115">0..*</text><text fill="#000000" font-family="sans-serif" font-size="13" lengthAdjust="spacing" textLength="8.271" x="1041.2217" y="721.7511">1</text></g><!--link SugerenciaPlato to Empleado--><g class="link" data-entity-1="ent0034" data-entity-2="ent0009" data-link-type="dependency" data-source-line="127" id="lnk65"><path codeLine="127" d="M1364.75,383.2269 C1236.46,383.2269 954.54,383.2269 954.54,383.2269 C954.54,383.2269 954.54,547.5369 954.54,605.4069" fill="none" id="SugerenciaPlato-to-Empleado" style="stroke:#181818;stroke-width:1;"/><polygon fill="#181818" points="954.54,611.4069,958.54,602.4069,954.54,606.4069,950.54,602.4069,954.54,611.4069" style="stroke:#181818;stroke-width:1;"/><text fill="#000000" font-family="sans-serif" font-size="13" lengthAdjust="spacing" textLength="52.7681" x="986.55" y="373.2938">propuso</text><text fill="#000000" font-family="sans-serif" font-size="13" lengthAdjust="spacing" textLength="23.0356" x="1328.1507" y="373.6895">0..*</text><text fill="#000000" font-family="sans-serif" font-size="13" lengthAdjust="spacing" textLength="8.271" x="937.7807" y="594.5714">1</text></g><!--link SolicitudCambioTurno to Empleado--><g class="link" data-entity-1="ent0014" data-entity-2="ent0009" data-link-type="dependency" data-source-line="128" id="lnk66"><path codeLine="128" d="M1155.24,521.9769 C1155.24,545.3269 1155.24,582.2269 1155.24,582.2269 C1155.24,582.2269 974.44,582.2269 974.44,582.2269 C974.44,582.2269 974.44,591.8969 974.44,605.3569" fill="none" id="SolicitudCambioTurno-to-Empleado" style="stroke:#181818;stroke-width:1;"/><polygon fill="#181818" points="974.44,611.3569,978.44,602.3569,974.44,606.3569,970.44,602.3569,974.44,611.3569" style="stroke:#181818;stroke-width:1;"/><text fill="#000000" font-family="sans-serif" font-size="13" lengthAdjust="spacing" textLength="67.1074" x="1006.4" y="572.2938">solicitante</text><text fill="#000000" font-family="sans-serif" font-size="13" lengthAdjust="spacing" textLength="23.0356" x="1108.6311" y="547.912">0..*</text><text fill="#000000" font-family="sans-serif" font-size="13" lengthAdjust="spacing" textLength="8.271" x="962.4241" y="594.9151">1</text></g><!--link Usuario to JuegoMesa--><g class="link" data-entity-1="ent0007" data-entity-2="ent0016" data-link-type="dependency" data-source-line="129" id="lnk67"><path codeLine="129" d="M1048,776.3669 C1048,811.8869 1048,885.2269 1048,885.2269 C1048,885.2269 793.02,885.2269 686.48,885.2269" fill="none" id="Usuario-to-JuegoMesa" style="stroke:#181818;stroke-width:1;"/><polygon fill="#181818" points="680.48,885.2269,689.48,889.2269,685.48,885.2269,689.48,881.2269,680.48,885.2269" style="stroke:#181818;stroke-width:1;"/><text fill="#000000" font-family="sans-serif" font-size="13" lengthAdjust="spacing" textLength="56.9702" x="855.67" y="875.2938">favoritos</text><text fill="#000000" font-family="sans-serif" font-size="13" lengthAdjust="spacing" textLength="8.271" x="1031.5951" y="802.3337">1</text><text fill="#000000" font-family="sans-serif" font-size="13" lengthAdjust="spacing" textLength="23.0356" x="694.0366" y="874.7252">0..*</text></g><!--link GestorPersistencia to Cafe--><g class="link" data-entity-1="ent0004" data-entity-2="ent0003" data-link-type="dependency" data-source-line="132" id="lnk68"><path codeLine="132" d="M139,140.8969 C139,165.0069 139,200.2769 139,224.2469" fill="none" id="GestorPersistencia-to-Cafe" style="stroke:#181818;stroke-width:1;stroke-dasharray:7,7;"/><polygon fill="#181818" points="139,230.2469,143,221.2469,139,225.2469,135,221.2469,139,230.2469" style="stroke:#181818;stroke-width:1;"/><text fill="#000000" font-family="sans-serif" font-size="13" lengthAdjust="spacing" textLength="53.7075" x="79" y="175.6438">serializa</text></g><!--link Cafe to Informe--><g class="link" data-entity-1="ent0003" data-entity-2="ent0005" data-link-type="dependency" data-source-line="133" id="lnk69"><path codeLine="133" d="M124.71,267.9469 C124.71,304.9469 124.71,383.2269 124.71,383.2269 C124.71,383.2269 114.31,383.2269 97.65,383.2269" fill="none" id="Cafe-to-Informe" style="stroke:#181818;stroke-width:1;stroke-dasharray:7,7;"/><polygon fill="#181818" points="91.65,383.2269,100.65,387.2269,96.65,383.2269,100.65,379.2269,91.65,383.2269" style="stroke:#181818;stroke-width:1;"/><text fill="#000000" font-family="sans-serif" font-size="13" lengthAdjust="spacing" textLength="53.187" x="64.71" y="332.1838">produce</text></g><?plantuml-src bLPBRYCt4DttAGXvCSa0CgnCuYW6Og0bKOQCiQtHPxO1rLsM6RERFMos0piPO2wGNIunLyZMDyb9maz_I8bEh5v9nQfNtrTaUK_pWWYIePodK4A1Ja-YiXKAajzhuK-ki21fIlCjEdKLUPMdOovo46WOEGS98sM9Ve-G-aOakT_McemBzDiTbM1Fk4X1MEdHS3WqmYdFvP8-0HgyYpv7NW39FTb2ZTgfVT_zbuyCq8Qpr8ZcTSI3xpHG9AbKfoDEH8ekI0PeJ6wVlw9_llo5Ol6fKa4biX84fO08anpbz05O803hHIXjacyPE0gCvY0V2q1So3iUtL451LaX7r46sGP4QKK95OcoYzwWdm_ubFey_h36AxmqCJ_GKffW4vuLF8TSGdaePDJKj9UfEM2yXqY9vhzStKpm-njqX4-dW-ceBhXjgQePE7yle9HSp5LgAXh84qgSmrb-oqK6klYjdwgiYA2yh3sjb-juCRjPegDfZF4ahdsHJIa5IMGDjBP6RXYCweH3oZWh693KrRvI8ouySvweLdcYECreJZLIoeKZNrKYT_MMdD64oYeTasn3kJrsC_orWcsRt-KQN-ZiS3nzDy7Xx2wrWGhHBLqhcmjLOPBnqDb7LGBY-SwKj75zXPUnhkj8-JxnUcXykMQ5u6cLo3Rg-U9ciXwlJE23wG_uXS3djTaLv9K3Fu8DJTravaJD1WD1Txn2IjFE9vxC9iQZceCfzWAU6qr7C05968DQxgTYwzMbWfUh-AgUi37-qGTkgkj2FEYoDlOVyVNAb76CHzYdWYc_QSP-PFkjAQij2CEG1dgvli0BV3sU6Vm1dkAXXxziBUQCI1FZmHlZ4Y_YnOVryv_An-nwXHVNyVBW9L6J3TLVl__7UKl9XcsXCuzIEsUMaiZ3R9dRq3Du6ErnmofqDF89qY9q2f4TqGxSc-HkN0E7XxTWWT_7uzdDjLhRQfOMkDlYtwWseq9GrUA2C2Y_FRWpRym-Hb0YO2XHsQgQwRk1R0Li2P8yLHwqbuGpI1AgheaoCYQzGG-zxVTHx-Ju-6slQGjolZFKxEgWXIuayhypPFPFK7s_QKgTvePhsd4XdhzQAlwdTTjHtzhy25gwpNF2p9__3gkRZRAJLRseNi1lqd4DccJ2DjtYS6pirWdgxom2g-_iax1Hu9xIPerO3O8U7_rsAAcT35LH2IBNuyB80qHUCLhuWO7tDx2NKLZJRaHlNMX5taLihr8LL5mg_fCwfaHKJqIFiPvkK6-mJnNebqvW_f11Kg3z_ddpSsTtcTBnf2g8VZq4ceUQQ0o60b3V_koU8NFBlnPWdrqjkVuVmkQndwvbMnIOs508BzfxZNpPVfz7UiojB79R_9ewjefD7GECU6qTzUlNlja2D0c1xDnOJIP5LV8eI9hNGTJ4CdCLsAQeiMrwwcur1-QMF711rLDC4y5zLoDGzBJlwVr7Dpe-FhTNWOr5NrwCFjKhKH_MR_6zZMrx2Fy2?></g></svg>